<svg id="图层_1" data-name="图层 1" xmlns="http://www.w3.org/2000/svg" viewBox="0 0 13.42 13.42"><defs><style>.cls-1{fill:#141414;}</style></defs><title>Find</title><path class="cls-1" d="M546.11,537.65a6.55,6.55,0,0,0-1.43-2.13,6.8,6.8,0,0,0-2.13-1.44,6.73,6.73,0,0,0-8.8,3.57,6.61,6.61,0,0,0-.52,2.61,6.71,6.71,0,0,0,9.32,6.18,6.8,6.8,0,0,0,2.13-1.44,6.55,6.55,0,0,0,1.43-2.13,6.69,6.69,0,0,0,.53-2.61A6.62,6.62,0,0,0,546.11,537.65ZM539.93,546a5.78,5.78,0,1,1,3.23-10.58l-1,1.29a4.07,4.07,0,0,0-2.24-.65,4.15,4.15,0,0,0-4.16,4.16,4.16,4.16,0,0,0,3.77,4.14,1.37,1.37,0,0,0,1.27.84,1.39,1.39,0,0,0,1.39-1.39v-.1a3.9,3.9,0,0,0,.68-.55,4.15,4.15,0,0,0,0-5.87l1-1.29a5.77,5.77,0,0,1-4,10Zm.86-3.57a1.39,1.39,0,0,0-1.33,1,3.24,3.24,0,0,1,.45-6.45,3.21,3.21,0,0,1,1.66.46l-1.46,1.87-.2,0a.93.93,0,1,0,.93.93.87.87,0,0,0-.05-.28l1.5-1.92a3.23,3.23,0,0,1-.5,4.83A1.37,1.37,0,0,0,540.79,542.47Z" transform="translate(-533.23 -533.55)"/></svg>