<?xml version="1.0" standalone="no"?>
<!DOCTYPE svg PUBLIC "-//W3C//DTD SVG 1.1//EN" "http://www.w3.org/Graphics/SVG/1.1/DTD/svg11.dtd" >
<!--
2013-9-30: Created.
-->
<svg>
<metadata>
Created by iconfont
</metadata>
<defs>

<font id="iconfont" horiz-adv-x="1024" >
  <font-face
    font-family="iconfont"
    font-weight="500"
    font-stretch="normal"
    units-per-em="1024"
    ascent="896"
    descent="-128"
  />
    <missing-glyph />
    
    <glyph glyph-name="erji2" unicode="&#58917;" d="M158.334633 161.17712200000005l-87.167269-11.038404c-1.086751 9.036817-36.604686 309.759903 120.598682 487.382323 66.319451 74.841545 166.813237 127.876436 318.640154 127.876436 156.37449 0 258.583336-54.250578 325.102333-130.49303 155.059542-177.894619 115.364471-475.67263 114.165156-484.309334l-86.9974 11.955286c0.342808 2.687202 35.06154 267.291672-93.400227 414.613996-58.856479 67.535139-143.562696 100.351546-258.870886 100.351546-111.618147 0-194.3238-32.144094-252.836449-98.219999-130.636293-147.566894-99.578949-415.31496-99.235119-417.832294L158.33361 161.17712200000005M803.881209 4.000360000000001L686.686043 4.000360000000001 686.686043 326.13101099999994l117.195166 0L803.881209 4.000360000000001 803.881209 4.000360000000001 803.881209 4.000360000000001zM335.300091 4.000360000000001L218.191906 4.000360000000001 218.191906 326.13101099999994 335.300091 326.13101099999994 335.300091 4.000360000000001 335.300091 4.000360000000001 335.300091 4.000360000000001z"  horiz-adv-x="1024" />

    
    <glyph glyph-name="faxian1" unicode="&#59022;" d="M936.837848 565.574429c-23.303752 55.096852-56.659441 104.572684-99.139951 147.053194-42.479487 42.479487-91.955318 75.835176-147.053194 99.138928-57.059554 24.133653-117.65463 36.371372-180.098821 36.371372-62.445214 0-123.039267-12.236696-180.098821-36.371372-55.097876-23.303752-104.572684-56.659441-147.053194-99.139951-42.48051-42.479487-75.835176-91.955318-99.139951-147.053194-24.133653-57.060577-36.371372-117.65463-36.371372-180.099844 0-62.444191 12.236696-123.039267 36.371372-180.098821 23.303752-55.097876 56.659441-104.572684 99.139951-147.053194 42.479487-42.48051 91.955318-75.835176 147.053194-99.138928 57.059554-24.134677 117.653607-36.371372 180.098821-36.371372 62.444191 0 123.039267 12.236696 180.098821 36.370349 55.097876 23.303752 104.573707 56.659441 147.053194 99.139951 42.48051 42.48051 75.835176 91.955318 99.139951 147.053194 24.134677 57.059554 36.371372 117.65463 36.371372 180.098821C973.20922 447.919798 960.972525 508.513852 936.837848 565.574429zM510.545882-13.37230999999997c-219.924875 0-398.846894 178.923042-398.846894 398.847917 0 219.925898 178.922019 398.847917 398.846894 398.847917 82.21856 0 158.703535-25.009603 222.254943-67.815525l-69.449745-88.704275c-45.661969 29.193903-98.755188 44.842301-154.258293 44.842301-76.706009 0-148.821467-29.870308-203.060789-84.10963s-84.10963-126.354779-84.10963-203.060789 29.870308-148.820444 84.10963-203.059765c47.77612-47.77612 109.424178-76.633355 175.860287-82.83459 14.681374-34.014698 48.51904-57.824987 87.921445-57.824987 52.867068 0 95.723132 42.857087 95.723132 95.723132 0 2.331092-0.088004 4.640694-0.251733 6.92983 16.717753 10.879792 32.43062 23.570835 46.866401 38.006616 54.239322 54.239322 84.110653 126.353756 84.110653 203.059765 0 76.307943-29.572526 148.06422-83.277682 202.206328l69.741387 89.076758c77.901231-72.838935 126.665865-176.472224 126.665865-291.283086C909.394822 165.549709 730.47178-13.37230999999997 510.545882-13.37230999999997zM569.814754 233.20252900000003c-43.551912 0-80.306001-29.087479-91.9062-68.89409-108.446921 15.21861-192.169741 108.59223-192.169741 221.167169 0 123.157971 100.197026 223.354997 223.354997 223.354997 41.859363 0 81.060177-11.584849 114.582665-31.702026l-101.19782-129.253806c-4.317329 0.921999-8.792247 1.417279-13.384845 1.417279-35.244712 0-63.815421-28.570709-63.815421-63.815421s28.571732-63.815421 63.815421-63.815421 63.815421 28.571732 63.815421 63.815421c0 6.777357-1.065262 13.302981-3.022847 19.431561l103.294574 131.931798c36.767392-39.828101 59.268872-93.013417 59.268872-151.36336 0-74.806753-36.97103-141.136437-93.596701-181.692109C621.433388 221.91443800000002 596.942601 233.20252900000003 569.814754 233.20252900000003z"  horiz-adv-x="1024" />

    
    <glyph glyph-name="shoucang" unicode="&#58932;" d="M928.891803 480.240694c-4.862772 14.704022-18.294016 25.021413-35.998232 27.56697L655.722604 541.920791 549.658066 754.570036c-7.909044 15.885669-21.976165 25.384918-37.634515 25.384918s-29.737759-9.499249-37.634515-25.362391L368.313235 541.920791 131.141244 507.807664c-17.726743-2.545557-31.180514-12.862948-36.009496-27.589497-4.841269-14.726549-0.057342-30.908142 12.738025-43.247848L279.510565 271.421048l-40.52105-233.762214c-2.420634-13.95551 0.670692-26.818458 8.693395-36.226574 7.260879-8.545945 18.055434-13.409741 29.6241-13.409741 7.499461 0 15.090054 1.95371 22.578252 5.864202L512.023551 104.245734l212.127027-110.359013c19.022049-9.907808 40.226151-6.500079 52.202352 7.545539 8.043182 9.408117 11.089454 22.271065 8.682131 36.226574l-40.498523 233.762214L916.165041 436.970319C928.982935 449.356103 933.710544 465.514144 928.891803 480.240694zM690.719406 303.419704c-7.13698-6.909662-10.409547-16.81747-8.726162-26.591139l36.77132-212.263213-192.607334 100.221839c-8.861324 4.635453-19.408081 4.635453-28.270429 0l-192.627814-100.221839 36.793847 212.263213c1.692601 9.77367-1.568702 19.681477-8.726162 26.591139l-155.846254 150.32303 215.365803 30.975723c9.885281 1.431492 18.431226 7.568066 22.862912 16.431438l96.314419 193.104978 96.315443-193.104978c4.430662-8.863372 12.976607-14.998922 22.861888-16.431438l215.37809-30.975723L690.719406 303.419704z"  horiz-adv-x="1024" />

    
    <glyph glyph-name="fanhui" unicode="&#58958;" d="M503.703033 82.43064c-46.207391 46.468334-92.579535 92.77601-138.987494 139.046846-53.253878 53.101405-106.60497 106.105596-162.03849 161.265894 13.256932 14.214746 23.925922 26.339902 35.311227 37.750789 86.790692 86.987167 173.759439 173.795255 260.556271 260.775258 9.230222 9.250688 19.21769 18.279319 26.194592 29.123294 10.748808 16.706497 10.456143 34.985816-3.816932 49.699935-15.835663 16.324804-35.003212 16.83748-53.399187 4.134157-9.326413-6.437619-17.176195-15.123442-25.275663-23.211654-102.015442-101.884458-204.051349-203.744357-305.866223-305.829384-44.690852-44.810578-44.806485-56.637951-1.131777-100.44569 101.798501-102.099353 203.788359-204.00837 305.814034-305.879526 9.239432-9.224082 18.576077-18.642592 29.14683-26.173103 17.025769-12.129248 34.276664-9.720386 49.094138 4.454452 14.995529 14.343683 16.262382 32.148188 6.736425 49.446156C520.664334 66.35143 511.74008 74.345498 503.703033 82.43064zM869.6404 425.73145c-8.143471 0.444115-16.32992 0.140193-24.495904 0.140193-140.471288 0.004093-280.941554 0.062422-421.411819-0.028653-53.994752-0.034792-75.130118-11.865235-73.347518-42.243103 1.815345-30.940686 18.49626-41.438785 75.477019-40.093137 70.195735 1.660826 140.461055 0.398066 210.695676 0.396019 24.50102-0.001023 49.002041-0.020466 73.502038 0.002047 53.900607 0.050142 107.821681-0.731664 161.696706 0.499373 33.139771 0.7552 50.351781 16.655332 49.539276 41.37227C920.488485 410.304086 903.026788 423.921221 869.6404 425.73145z"  horiz-adv-x="1024" />

    
    <glyph glyph-name="lishicaozuoliebiao" unicode="&#58898;" d="M633.924267-128 633.924267-62.464 1092.266667-62.464 1092.266667-128 633.924267-128ZM633.924267 84.718933 1092.266667 84.718933 1092.266667 19.182933 633.924267 19.182933 633.924267 84.718933ZM633.924267 231.901867 1092.266667 231.901867 1092.266667 166.434133 633.924267 166.434133 633.924267 231.901867ZM1013.213867 295.185067C1019.357867 324.130133 1022.5664 353.826133 1022.5664 384.068267 1022.5664 503.330133 973.482667 615.424 884.5312 699.733333 795.511467 784.042667 677.137067 830.464 551.3216 830.464 425.437867 830.464 307.063467 784.042667 218.043733 699.733333 191.2832 674.338133 168.1408 646.417067 148.821333 616.584533L297.710933 662.3232C315.869867 667.921067 335.325867 658.500267 341.1968 641.297067 347.136 624.093867 337.169067 605.5936 319.010133 599.995733L88.746667 529.271467C85.333333 528.1792 81.7152 527.701333 78.097067 527.701333 72.021333 527.701333 65.9456 529.2032 60.552533 532.206933 52.087467 536.917333 46.08 544.904533 44.168533 554.120533L0.6144 764.381867C-3.072 782.1312 9.147733 799.3344 27.921067 802.816 46.626133 806.2976 64.785067 794.760533 68.471467 777.0112L93.525333 656.1792C114.961067 688.605867 140.219733 718.6432 169.1648 746.0864 218.794667 793.053867 276.616533 829.986133 340.923733 855.722667 407.552 882.4832 478.344533 896 551.3216 896 624.2304 896 695.022933 882.4832 761.6512 855.722667 826.026667 829.986133 883.780267 793.053867 933.410133 746.0864 983.04 699.050667 1021.952 644.3008 1049.1904 583.338667 1077.384533 520.192 1091.652267 453.154133 1091.652267 384.068267 1091.652267 353.962667 1088.989867 324.334933 1083.5968 295.185067L1013.213867 295.185067ZM218.043733 68.4032C306.039467-14.9504 422.638933-61.2352 546.884267-62.327467L546.884267-127.863467C475.477333-127.317333 406.254933-113.800533 340.923733-87.6544 276.616533-61.8496 218.794667-24.917333 169.1648 22.050133 119.6032 69.085867 80.622933 123.835733 53.384533 184.797867 37.205333 221.047467 25.6 258.594133 18.6368 297.096533L88.951467 297.096533C106.769067 211.012267 151.074133 131.822933 218.043733 68.4032ZM607.6416 655.7696 607.6416 352.392533 353.6896 352.392533 353.6896 417.860267 538.487467 417.860267 538.487467 655.7696 607.6416 655.7696Z"  horiz-adv-x="1093" />

    
    <glyph glyph-name="faxian2" unicode="&#58924;" d="M512 595.2C396.8 595.2 307.2 499.2 307.2 384c0-57.6 25.6-115.2 70.4-153.6 12.8-12.8 32-12.8 44.8 0 12.8 12.8 12.8 32 0 44.8C384 300.79999999999995 364.8 339.20000000000005 364.8 384c0 83.2 64 147.2 147.2 147.2 83.2 0 147.2-64 147.2-147.2 0-83.2-64-147.2-147.2-147.2L505.6 236.79999999999995c-12.8 0-25.6-6.4-25.6-19.2-6.4-19.2-19.2-38.4-32-51.2-12.8-12.8-12.8-32 0-44.8 6.4-6.4 12.8-6.4 19.2-6.4 6.4 0 12.8 0 19.2 6.4 19.2 19.2 32 38.4 38.4 57.6 108.8 6.4 198.4 96 198.4 211.2C723.2 499.2 627.2 595.2 512 595.2zM121.6 384c0 115.2 38.4 224 115.2 307.2 12.8 12.8 12.8 32 0 44.8-12.8 12.8-32 12.8-44.8 0C108.8 633.6 64 512 64 384c0-128 44.8-249.6 134.4-345.6 6.4-6.4 12.8-12.8 25.6-12.8 6.4 0 12.8 0 19.2 6.4 12.8 12.8 12.8 32 0 44.8C166.4 160 121.6 268.79999999999995 121.6 384zM825.6 729.6c-12.8 12.8-32 12.8-44.8 0-12.8-12.8-12.8-32 0-44.8 76.8-83.2 115.2-198.4 115.2-307.2 0-115.2-38.4-224-115.2-307.2-12.8-12.8-12.8-32 0-44.8 6.4-6.4 12.8-6.4 19.2-6.4 6.4 0 19.2 6.4 25.6 12.8C915.2 134.39999999999998 960 256 960 384 960 512 915.2 633.6 825.6 729.6zM288 588.8C275.2 595.2 256 595.2 243.2 582.4c-38.4-57.6-64-128-64-198.4 0-70.4 19.2-140.8 64-198.4 6.4-6.4 12.8-12.8 25.6-12.8 6.4 0 12.8 0 19.2 6.4 12.8 12.8 19.2 25.6 6.4 44.8C262.4 268.79999999999995 243.2 326.4 243.2 384c0 57.6 19.2 115.2 51.2 160C300.8 556.8 300.8 576 288 588.8zM838.4 384c0 70.4-19.2 140.8-64 198.4-12.8 12.8-25.6 19.2-44.8 6.4-12.8-12.8-19.2-25.6-6.4-44.8 32-44.8 51.2-102.4 51.2-160 0-57.6-19.2-115.2-51.2-160-12.8-12.8-6.4-32 6.4-44.8 6.4-6.4 12.8-6.4 19.2-6.4 6.4 0 19.2 6.4 25.6 12.8C819.2 243.20000000000005 838.4 313.6 838.4 384z"  horiz-adv-x="1024" />

    
    <glyph glyph-name="suijibofang" unicode="&#58880;" d="M641.792 254.805333l-128.469333 128.469334 0.085333 0.128-60.544 60.544-0.128-0.085334-153.301333 153.301334-0.426667-0.426667v0.426667h-256v-85.632h220.970667l342.101333-342.101334 0.085333 0.085334h169.642667l-78.464-78.464 60.330667-60.330667 180.394666 181.632 42.837334 42.837333-205.397334-0.298666h-133.717333z m176.042667-42.325333l0.469333-0.469333-0.469333-0.469334v0.938667zM641.877333 511.829333h133.589334l205.397333-0.298666-42.837333 42.837333-180.394667 181.632-60.330667-60.330667 78.464-78.464h-169.728l-92.672-92.672 60.544-60.544 67.968 67.84z m175.957334 43.306667l0.469333-0.469333-0.469333-0.469334v0.938667zM264.021333 255.146667h-221.013333v-85.674667h256v0.384l0.426667-0.426667 93.013333 92.970667-60.586667 60.544z"  horiz-adv-x="1024" />

    
    <glyph glyph-name="aixin" unicode="&#58882;" d="M1002.1888 521.40544c0 153.24672-124.30848 277.9392-277.09952 277.9392-76.23168 0-147.27168-30.74048-198.88128-84.34176-51.57888 53.38624-122.5216 84.02944-198.58432 84.02944-152.79104 0-277.10464-124.69248-277.10464-277.93408 0-70.97344 26.64448-138.37312 75.0848-190.11584 0.83456-1.024 1.73568-2.00192 2.688-2.94912l2.78016-2.7904 1.3312-1.35168 350.6432-336.68096c11.1104-11.1104 26.67008-17.5616 43.18208-17.5616 16.53248 0 32.09728 6.4512 43.80672 18.12992 11.008 10.4704 287.32928 273.32096 350.49984 336.53248l1.07008 1.07008-0.48128-0.42496c0.80896 0.77824 1.60256 1.59232 2.3808 2.42688 50.75456 52.20352 78.68416 121.03168 78.68416 194.0224z m-110.22848-165.27872c-0.3072-0.3328-0.66048-0.7168-0.96768-1.024-0.0256-0.02048-0.0512-0.02048-0.07168-0.0512-62.45888-62.6176-350.92992-337.00864-350.92992-337.00864a19.48672 19.48672 0 0 0-27.50976 0l-349.9776 336.04096c-0.47616 0.47616-0.92672 0.95232-1.40288 1.39776l-2.78528 2.78528s0.07168 0.0256 0.09728 0.0256c-40.4224 42.27584-65.3312 99.59424-65.3312 162.78528 0 129.90464 105.01632 235.22816 234.54208 235.22816 83.72736 0 157.14304-44.01664 198.64064-110.20288 41.472 66.3552 115.01056 110.51008 198.83008 110.51008 129.52064 0 234.51136-105.32352 234.51136-235.22816 0.0256-64.40448-25.81504-122.76736-67.64544-165.25824zM328.02304 702.17728c-101.6832 0-184.43264-82.98496-184.43264-184.98048 0-11.776 9.53856-21.34016 21.29408-21.34016a21.3248 21.3248 0 0 1 21.29408 21.34016c0 78.464 63.62112 142.27456 141.8496 142.27456a21.32992 21.32992 0 0 1 21.29408 21.34016c0 11.776-9.54368 21.36576-21.2992 21.36576zM725.08928 780.5696c-76.23168 0-147.27168-30.74048-198.88128-84.34176-51.57888 53.39136-122.5216 84.03456-198.58432 84.03456-152.79104 0-277.10464-124.69248-277.10464-277.93408 0-70.97344 26.64448-138.368 75.0848-190.12096 0.83456-1.01888 1.73568-2.00192 2.688-2.94912l2.78016-2.7904 1.3312-1.35168 350.6432-336.68096c11.1104-11.1104 26.67008-17.5616 43.18208-17.5616 16.53248 0 32.09728 6.4512 43.80672 18.12992 11.008 10.4704 287.32928 273.32096 350.49984 336.5376l1.07008 1.07008-0.48128-0.43008c0.80896 0.77824 1.60256 1.59232 2.3808 2.432 50.74944 52.1984 78.67904 121.02656 78.67904 194.0224 0.00512 153.2416-124.30336 277.93408-277.0944 277.93408z m166.87104-443.2128c-0.3072-0.33792-0.66048-0.72192-0.96768-1.02912-0.0256-0.02048-0.0512-0.02048-0.07168-0.0512-62.45888-62.6176-350.92992-337.00864-350.92992-337.00864a19.4816 19.4816 0 0 0-27.50976 0L162.50368 335.3088c-0.47616 0.48128-0.92672 0.95232-1.40288 1.39776l-2.78528 2.7904s0.07168 0.02048 0.09728 0.02048c-40.4224 42.28096-65.3312 99.59424-65.3312 162.78528 0 129.90464 105.01632 235.22816 234.54208 235.22816 83.72736 0 157.14304-44.01664 198.64064-110.20288 41.472 66.3552 115.01056 110.51008 198.83008 110.51008 129.52064 0 234.51136-105.32352 234.51136-235.22816 0.0256-64.40448-25.81504-122.76736-67.64544-165.25312zM1002.1888 502.63552v-0.00512zM338.26304 690.2272c-101.6832 0-184.43264-82.98496-184.43264-184.98048 0-11.776 9.53856-21.34016 21.29408-21.34016a21.3248 21.3248 0 0 1 21.29408 21.34016c0 78.464 63.62112 142.27456 141.8496 142.27456a21.32992 21.32992 0 0 1 21.29408 21.34016c0 11.776-9.54368 21.36576-21.2992 21.36576z"  horiz-adv-x="1024" />

    
    <glyph glyph-name="gedan" unicode="&#58948;" d="M83.895296 567.704576L499.171328 341.270528c4.368384-1.74592 8.737792-2.623488 13.115392-2.623488 4.368384 0 9.61536 1.74592 13.115392 2.623488l420.512768 226.433024c9.61536 5.245952 14.861312 13.983744 13.99296 25.353216 0 10.491904-5.245952 20.107264-14.861312 24.475648L529.770496 828.228608c-8.747008 4.3776-17.483776 4.3776-25.353216 0l-419.644416-210.695168c-9.61536-4.368384-15.737856-13.983744-15.737856-24.475648-0.001024-11.369472 5.244928-20.107264 14.860288-25.353216z m432.759808 204.571648L871.600128 591.311872 512.28672 398.10048l-354.95424 193.211392 359.322624 180.964352z m423.144448-360.192l-83.060736 41.96864-59.444224-32.354304 69.936128-35.84512-359.322624-193.211392-354.945024 193.211392 74.313728 37.600256-59.45344 32.345088-88.297472-43.71456c-20.107264-10.491904-20.984832-39.346176-0.877568-49.828864l415.276032-226.433024c4.368384-2.623488 9.61536-3.500032 13.983744-3.500032 4.3776 0 8.747008 0.877568 13.115392 3.500032l419.644416 226.433024c20.107264 10.482688 20.107264 39.33696-0.868352 49.828864z m0-195.833856l-78.683136 38.468608-59.45344-32.345088 65.567744-32.354304-359.322624-193.211392-354.945024 193.211392 69.067776 31.476736-59.45344 32.345088-83.05152-37.59104c-20.107264-10.491904-20.984832-39.346176-0.877568-49.828864l415.276032-226.433024c5.245952-1.755136 8.737792-3.500032 13.983744-3.500032 4.3776 0 8.747008 0.877568 13.115392 3.500032l419.644416 226.433024c20.107264 10.482688 20.107264 39.33696-0.868352 49.828864z"  horiz-adv-x="1024" />

    
    <glyph glyph-name="erji1" unicode="&#58893;" d="M31.744 384c0-265.216 215.04-480.256 480.256-480.256s480.256 215.04 480.256 480.256-215.04 480.256-480.256 480.256-480.256-215.04-480.256-480.256zM772.096 149.504c-32.256-27.648-70.144-34.304-110.592-15.872-19.968 8.704-30.208 20.992-26.112 44.544 6.144 33.792 9.216 68.096 13.312 102.4 5.632 46.592 15.36 57.344 60.416 56.32 25.088-0.512 31.232 8.704 31.744 31.232 3.584 126.464-94.208 227.84-221.184 227.84-126.464 0-224.256-102.912-219.648-229.376 1.024-21.504 6.656-30.208 30.208-29.696 46.592 1.024 56.32-9.728 61.952-54.784 4.096-36.352 8.192-72.192 13.824-108.544 3.072-19.968-6.144-30.208-22.016-37.888-36.864-18.432-72.704-15.36-106.496 7.68-33.28 22.016-54.784 57.856-44.032 93.184 18.944 63.488 10.24 128.512 22.016 192 23.04 123.392 135.68 218.112 263.168 219.136 128 1.536 244.736-93.696 267.264-217.6 4.096-23.04 7.68-46.08 7.168-69.632-1.024-35.328 0.512-69.632 12.288-104.448 13.824-41.472-1.536-78.848-33.28-106.496z"  horiz-adv-x="1024" />

    
    <glyph glyph-name="xiaoxi2" unicode="&#58916;" d="M298.666667-34.13333299999999v194.133333H128v597.333333h768v-597.333333H550.4L298.666667-34.13333299999999z m-85.333334 279.466666h170.666667v-104.533333l136.533333 104.533333H810.666667v426.666667H213.333333v-426.666667zM298.666667 501.333333h256v-85.333333H298.666667zM640 501.333333h85.333333v-85.333333h-85.333333z"  horiz-adv-x="1024" />

    
    <glyph glyph-name="xinxi" unicode="&#58904;" d="M270.263636 427.208754h555.195382H270.263636zM270.263636-95.34774h555.195382H270.263636zM270.263636-62.655367h555.195382H270.263636zM270.263636-30.003108h555.195382H270.263636zM270.263636 2.675894h555.195382H270.263636zM270.263636 35.341525h555.195382H270.263636zM270.263636 67.993785h555.195382H270.263636zM270.263636 100.672786h555.195382H270.263636zM270.263636 133.325046h555.195382H270.263636zM270.263636 165.883708h555.195382H270.263636zM270.263636 198.535968h555.195382H270.263636zM270.263636 231.214969h555.195382H270.263636zM270.263636 263.867229h555.195382H270.263636zM270.263636 296.519489h555.195382H270.263636zM270.263636 329.211862h555.195382H270.263636zM270.263636 361.864121h555.195382H270.263636zM270.263636 394.556494h555.195382H270.263636zM270.263636-128h555.195382H270.263636zM270.263636 427.208754v-555.208754V427.208754zM792.806759 427.208754v-555.208754V427.208754zM760.127757 427.208754v-555.208754V427.208754zM727.462126 427.208754v-555.208754V427.208754zM694.783124 427.208754v-555.208754V427.208754zM662.130865 427.208754v-555.208754V427.208754zM629.478605 427.208754v-555.208754V427.208754zM596.786232 427.208754v-555.208754V427.208754zM564.133972 427.208754v-555.208754V427.208754zM531.588682 427.208754v-555.208754V427.208754zM498.936422 427.208754v-555.208754V427.208754zM466.244049 427.208754v-555.208754V427.208754zM433.591789 427.208754v-555.208754V427.208754zM400.93953 427.208754v-555.208754V427.208754zM368.247157 427.208754v-555.208754V427.208754zM335.594897 427.208754v-555.208754V427.208754zM302.915895 427.208754v-555.208754V427.208754zM825.459018 427.208754v-555.208754V427.208754zM198.540982 896h226.346212v-226.346213H198.540982zM198.540982 589.587559h226.346212v-589.519032H198.540982z"  horiz-adv-x="1024" />

    
    <glyph glyph-name="xuanxiang1" unicode="&#58891;" d="M890.88 802.909091h-837.818182a46.545455 46.545455 0 0 0 0 93.090909h837.818182a46.545455 46.545455 0 1 0 0-93.090909zM1168.290909 337.45454500000005h-1117.090909a46.545455 46.545455 0 1 0 0 93.09091h1117.090909a46.545455 46.545455 0 0 0 0-93.09091zM584.610909-128H46.545455a46.545455 46.545455 0 0 0 0 93.090909h538.065454a46.545455 46.545455 0 0 0 0-93.090909z"  horiz-adv-x="1214" />

    
    <glyph glyph-name="xunhuanbofang" unicode="&#58890;" d="M164.48 112.64h-5.76a74.88 74.88 0 0 0-55.04 30.72A415.36 415.36 0 0 0 23.68 384a403.84 403.84 0 0 0 402.56 402.56h618.88a49.92 49.92 0 0 0 45.44-30.08 50.56 50.56 0 0 0-8.96-52.48l-167.68-174.08a48.64 48.64 0 0 0-53.76-11.52 49.92 49.92 0 0 0-32 46.72v64a9.6 9.6 0 0 1-10.24 10.24h-390.4a270.72 270.72 0 0 1-256-256 261.12 261.12 0 0 1 48-151.04 74.24 74.24 0 0 0-6.4-97.92 73.6 73.6 0 0 0-48.64-21.76zM858.88-19.2H246.4a49.92 49.92 0 0 0-45.44 30.08 50.56 50.56 0 0 0 9.6 53.12l161.92 165.76a48.64 48.64 0 0 0 53.76 11.52 49.92 49.92 0 0 0 32-46.72v-64a8.32 8.32 0 0 1 8.32-8.32h392.32a260.48 260.48 0 0 1 256 256 240 240 0 0 1-53.76 150.4 72.32 72.32 0 0 0 3.84 97.92 72.96 72.96 0 0 0 58.24 24.32 72.32 72.32 0 0 0 53.76-30.08 418.56 418.56 0 0 0 79.36-243.2 397.44 397.44 0 0 0-397.44-396.8zM418.56 187.52z"  horiz-adv-x="1280" />

    
    <glyph glyph-name="sousuo" unicode="&#59702;" d="M465.736859-48.379714c257.426922 0 465.737859 211.605936 465.737859 472.189857C931.474718 684.395064 723.163781 896 465.736859 896 208.310937 896 0 684.395064 0 423.810143c0-260.583921 208.309937-472.189857 465.736859-472.189857z m0 69.414979c-218.279934 0-395.60488 180.129945-395.60488 402.774878 0 222.645933 177.325946 402.774878 395.60488 402.774878 218.279934 0 395.60488-180.129945 395.60488-402.774878 0-222.644933-177.324946-402.774878-395.60488-402.774878z m346.903895 15.019995l151.176954-153.568953c13.515996-13.728996 35.715989-14.013996 49.586985-0.637 13.870996 13.376996 14.159996 35.349989 0.644 49.079985L862.871739 84.497246c-13.515996 13.729996-35.716989 14.013996-49.586985 0.637999-13.870996-13.376996-14.159996-35.350989-0.644-49.079985z m-484.801853 203.909939c-33.12699 25.345992-57.035983 55.249983-73.067978 88.971973-24.721993 51.999984-29.129991 107.976967-21.661994 157.969952 1.115 7.465998 2.171999 12.532996 2.746 14.742995 4.821999 18.563994-6.473998 37.482989-25.229993 42.256988-18.756994 4.772999-37.870989-6.407998-42.693987-24.971993-1.162-4.474999-2.709999-11.903996-4.199999-21.874993-9.314997-62.357981-3.869999-131.52496 27.581992-197.67894 20.693994-43.525987 51.584984-82.162975 93.631972-114.334966 15.322995-11.722996 37.345989-8.932997 49.189985 6.232998 11.844996 15.164995 9.025997 36.962989-6.295998 48.685986z"  horiz-adv-x="1024" />

    
    <glyph glyph-name="kongjian" unicode="&#58886;" d="M937.668466 629.7492500000001l0.012798-491.511298-425.681264-245.74925 0.012797 491.511298 425.655669 245.74925zM512-128a20.475905 20.475905 0 0 0-20.475905 20.475905V384a20.475905 20.475905 0 0 0 10.237953 17.737253l425.655668 245.710857a20.475905 20.475905 0 0 0 30.713858-17.737252v-491.472906a20.475905 20.475905 0 0 0-10.237953-17.737252L522.237952-125.23575300000005a20.475905 20.475905 0 0 0-10.237952-2.764247z m20.475905 500.175165v-444.224755l384.716656 222.112377V594.287542zM512-128a20.475905 20.475905 0 0 0-10.237952 2.75145L76.093581 120.47510499999999a20.475905 20.475905 0 0 0-10.237952 17.737253V629.8132370000001a20.475905 20.475905 0 0 0 30.713857 17.724455l425.668466-245.710857a20.475905 20.475905 0 0 0 10.237953-17.737253v-491.613677a20.475905 20.475905 0 0 0-20.475905-20.475905zM106.807439 150.07558500000005l384.716656-222.125175V372.175165L106.807439 594.30034zM512.012797 363.524095a20.475905 20.475905 0 0 0-10.237952 2.75145L76.093581 612.037592a20.475905 20.475905 0 0 0 0 35.461708l425.681264 245.710858a20.475905 20.475905 0 0 0 20.475905 0l425.642871-245.774845a20.475905 20.475905 0 0 0 0-35.474505l-425.655669-245.710858a20.475905 20.475905 0 0 0-10.225155-2.725855zM127.283343 629.8132370000001l384.729454-222.163567 384.70386 222.09958L512.012797 851.874425z"  horiz-adv-x="1024" />

    
    <glyph glyph-name="xiaoxi1" unicode="&#59236;" d="M257.987 414.826c0-28.218 22.876-51.094 51.094-51.094s51.094 22.876 51.094 51.094-22.876 51.094-51.094 51.094-51.094-22.876-51.094-51.094zM459.935 414.826c0-28.218 22.876-51.094 51.094-51.094s51.094 22.876 51.094 51.094-22.876 51.094-51.094 51.094-51.094-22.876-51.094-51.094zM661.883 414.826c0-28.218 22.876-51.094 51.094-51.094s51.094 22.876 51.094 51.094-22.876 51.094-51.094 51.094-51.094-22.876-51.094-51.094zM891.502 558.034c-20.995 43.449-50.851 82.527-88.959 115.902-77.551 68.084-180.346 105.465-289.451 105.465-109.227 0-212.021-37.501-289.451-105.465-38.108-33.375-67.963-72.332-88.959-115.902-21.845-45.39-32.89-93.571-32.89-143.209 0-58.254 15.899-116.144 45.875-167.602 26.214-44.905 63.351-85.075 107.892-116.873v-120.756c0-10.437 5.583-20.025 14.563-25.244 4.491-2.548 9.588-3.884 14.563-3.884s10.073 1.334 14.563 3.884l127.795 73.789c28.157-5.34 57.162-8.01 86.047-8.01 109.227 0 212.021 37.501 289.451 105.465 38.108 33.375 67.963 72.332 88.959 115.902 21.845 45.39 32.89 93.571 32.89 143.209 0.122 49.759-11.044 97.94-32.89 143.329z m-378.41-449.649c-28.641 0-57.283 3.035-84.955 8.98-7.039 1.456-14.442 0.364-20.631-3.277l-93.693-54.128v85.682c0 9.83-4.976 18.932-13.107 24.394-89.444 58.619-140.781 147.82-140.781 244.789 0 168.938 158.379 306.32 353.166 306.32 194.666 0 353.166-137.383 353.166-306.32s-158.5-306.442-353.166-306.442z"  horiz-adv-x="1024" />

    
    <glyph glyph-name="lishi" unicode="&#58889;" d="M692.531 602.788c181.658 0 329.421-145.736 329.421-324.874 0-179.16-147.784-324.875-329.42-324.875S363.11 98.755 363.11 277.914c0 179.138 147.784 324.874 329.421 324.874z m0-572.273c138.322 0 250.86 110.96 250.86 247.399 0 136.396-112.538 247.398-250.86 247.398-138.301 0-250.839-111.002-250.839-247.398 0-136.438 112.538-247.399 250.84-247.399zM0 96.461c0 22.528 18.514 40.796 41.329 40.796h260.894l1.905-1.331a404.48 404.48 0 0 1 38.748-77.087l-1.72-3.154H41.329C18.514 55.685 0 73.933 0 96.461z m41.329 656.527C18.514 752.988 0 771.236 0 793.784 0 816.312 18.514 834.56 41.329 834.56h835.338c22.815 0 41.329-18.268 41.329-40.796s-18.514-40.776-41.33-40.776H41.33z m0-464.875C18.514 288.113 0 306.38 0 328.909s18.514 40.755 41.329 40.755h244.818l2.007-2.499a403.886 403.886 0 0 1-9.606-77.086l-2.048-1.987H41.33z m0 314.02h393.134l1.249-3.687c-28.344-22.118-53.76-48.005-77.312-77.885H41.329C18.514 520.56 0 538.808 0 561.336s18.514 40.796 41.329 40.796z m766.443-284.304c22.815 0 41.329-18.248 41.329-40.776s-18.514-40.796-41.329-40.796h-115.24c-22.816 0-41.33 18.268-41.33 40.796v142.05c0 22.528 18.514 40.775 41.33 40.775 22.834 0 41.348-18.247 41.348-40.775v-101.274h73.892z"  horiz-adv-x="1024" />

    
    <glyph glyph-name="yinfu1" unicode="&#58959;" d="M774.229333 774.058667L352.085333 693.248c-21.888-4.224-37.717333-23.466667-37.717333-45.866667v-448.938666c-33.792 13.610667-78.037333 13.696-121.002667-2.816-73.813333-28.416-115.925333-95.146667-94.08-149.12 21.888-53.930667 99.498667-74.666667 173.312-46.208 62.293333 23.936 102.016 75.221333 99.797334 123.050666v410.453334l371.370666 71.082666v-313.642666c-33.792 13.653333-78.08 13.781333-121.088-2.773334-73.770667-28.416-115.84-95.146667-93.994666-149.12 21.888-53.930667 99.413333-74.624 173.184-46.208 61.141333 23.552 100.522667 73.429333 99.754666 120.533334l0.170667 0.042666V751.146667a23.253333 23.253333 0 0 1-27.562667 22.912z"  horiz-adv-x="1024" />

    
    <glyph glyph-name="shezhi" unicode="&#58892;" d="M923.7 399.4L732.2 731.1C726.5 741 716 747 704.6 747h-383c-11.4 0-21.9-6.1-27.6-15.9L102.5 399.4c-5.7-9.9-5.7-22 0-31.8L294 35.799999999999955c5.7-9.9 16.2-15.9 27.6-15.9h383c11.4 0 21.9 6.1 27.6 15.9l191.5 331.7c5.7 9.9 5.7 22 0 31.9zM695.4 67.79999999999995H330.9L148.6 383.5l182.3 315.7h364.5l182.3-315.7-182.3-315.7zM513.1 544.9c-89.2 0-161.5-72.3-161.5-161.5S424 222 513.1 222s161.5 72.3 161.5 161.5-72.3 161.4-161.5 161.4z m80.4-241.8c-21.5-21.5-50-33.3-80.3-33.3s-58.9 11.8-80.3 33.3c-21.5 21.5-33.3 50-33.3 80.3s11.8 58.9 33.3 80.3c21.5 21.5 50 33.3 80.3 33.3s58.9-11.8 80.3-33.3c21.5-21.5 33.3-50 33.3-80.3s-11.9-58.8-33.3-80.3z"  horiz-adv-x="1024" />

    


  </font>
</defs>
</svg>
